<svg xmlns="http://www.w3.org/2000/svg" xmlns:xlink="http://www.w3.org/1999/xlink" width="512" zoomAndPan="magnify" viewBox="0 0 384 383.999986" height="512" preserveAspectRatio="xMidYMid meet" version="1.2"><defs><clipPath id="f5d4f3cf4c"><path d="M 65.039062 0 L 319 0 L 319 384 L 65.039062 384 Z M 65.039062 0 "/></clipPath></defs><g id="59a4fab503"><g clip-rule="nonzero" clip-path="url(#f5d4f3cf4c)"><path style=" stroke:none;fill-rule:nonzero;fill:#ffffff;fill-opacity:1;" d="M 281.5625 37.164062 C 306.488281 61.878906 318.949219 91.789062 318.949219 126.890625 C 318.949219 154.722656 300.566406 201.554688 263.804688 267.394531 C 246.359375 298.757812 228.703125 328.042969 210.84375 355.25 L 191.839844 383.914062 L 173.144531 355.25 C 155.285156 328.042969 137.527344 298.757812 119.871094 267.394531 C 83.316406 201.347656 65.039062 154.511719 65.039062 126.890625 C 65.039062 91.789062 77.5 61.878906 102.425781 37.164062 C 127.140625 12.449219 156.945312 0.0898438 191.839844 0.0898438 C 226.9375 0.0898438 256.847656 12.449219 281.5625 37.164062 M 191.839844 60.21875 C 173.769531 60.21875 158.296875 66.65625 145.417969 79.535156 C 132.542969 92.410156 126.101562 107.886719 126.101562 125.953125 C 126.101562 144.230469 132.542969 159.808594 145.417969 172.6875 C 158.296875 185.5625 173.769531 192.003906 191.839844 192.003906 C 210.117188 192.003906 225.691406 185.5625 238.570312 172.6875 C 251.449219 159.808594 257.886719 144.230469 257.886719 125.953125 C 257.886719 107.886719 251.449219 92.410156 238.570312 79.535156 C 225.691406 66.65625 210.117188 60.21875 191.839844 60.21875 "/></g></g></svg>