<svg xmlns="http://www.w3.org/2000/svg" xmlns:xlink="http://www.w3.org/1999/xlink" width="512" zoomAndPan="magnify" viewBox="0 0 384 383.999986" height="512" preserveAspectRatio="xMidYMid meet" version="1.2"><g id="d65aef08c2"><path style=" stroke:none;fill-rule:nonzero;fill:#ffffff;fill-opacity:1;" d="M 192 0 C 188.859375 0 185.71875 0.078125 182.578125 0.230469 C 179.441406 0.386719 176.308594 0.617188 173.179688 0.925781 C 170.054688 1.234375 166.9375 1.617188 163.828125 2.078125 C 160.71875 2.539062 157.625 3.078125 154.542969 3.6875 C 151.460938 4.300781 148.394531 4.992188 145.347656 5.753906 C 142.300781 6.515625 139.273438 7.355469 136.265625 8.265625 C 133.257812 9.179688 130.277344 10.164062 127.316406 11.222656 C 124.359375 12.28125 121.429688 13.414062 118.523438 14.613281 C 115.621094 15.816406 112.75 17.089844 109.910156 18.433594 C 107.070312 19.777344 104.261719 21.191406 101.492188 22.671875 C 98.71875 24.152344 95.988281 25.699219 93.292969 27.316406 C 90.597656 28.929688 87.941406 30.613281 85.332031 32.359375 C 82.71875 34.105469 80.148438 35.914062 77.625 37.785156 C 75.101562 39.65625 72.625 41.589844 70.195312 43.582031 C 67.765625 45.574219 65.390625 47.628906 63.0625 49.738281 C 60.734375 51.847656 58.457031 54.011719 56.234375 56.234375 C 54.011719 58.457031 51.847656 60.734375 49.738281 63.0625 C 47.628906 65.390625 45.574219 67.765625 43.582031 70.195312 C 41.589844 72.625 39.65625 75.101562 37.785156 77.625 C 35.914062 80.148438 34.105469 82.71875 32.359375 85.332031 C 30.613281 87.941406 28.929688 90.597656 27.316406 93.292969 C 25.699219 95.988281 24.152344 98.71875 22.671875 101.492188 C 21.191406 104.261719 19.777344 107.070312 18.433594 109.910156 C 17.089844 112.75 15.816406 115.621094 14.613281 118.523438 C 13.414062 121.429688 12.28125 124.359375 11.222656 127.316406 C 10.164062 130.277344 9.179688 133.257812 8.265625 136.265625 C 7.355469 139.273438 6.515625 142.300781 5.753906 145.347656 C 4.992188 148.394531 4.300781 151.460938 3.6875 154.542969 C 3.078125 157.625 2.539062 160.71875 2.078125 163.828125 C 1.617188 166.9375 1.234375 170.054688 0.925781 173.179688 C 0.617188 176.308594 0.386719 179.441406 0.230469 182.578125 C 0.078125 185.71875 0 188.859375 0 192 C 0 195.140625 0.078125 198.28125 0.230469 201.421875 C 0.386719 204.558594 0.617188 207.691406 0.925781 210.820312 C 1.234375 213.945312 1.617188 217.0625 2.078125 220.171875 C 2.539062 223.28125 3.078125 226.375 3.6875 229.457031 C 4.300781 232.539062 4.992188 235.605469 5.753906 238.652344 C 6.515625 241.699219 7.355469 244.726562 8.265625 247.734375 C 9.179688 250.742188 10.164062 253.722656 11.222656 256.683594 C 12.28125 259.640625 13.414062 262.570312 14.613281 265.476562 C 15.816406 268.378906 17.089844 271.25 18.433594 274.089844 C 19.777344 276.929688 21.191406 279.738281 22.671875 282.507812 C 24.152344 285.28125 25.699219 288.011719 27.316406 290.707031 C 28.929688 293.402344 30.613281 296.058594 32.359375 298.667969 C 34.105469 301.28125 35.914062 303.851562 37.785156 306.375 C 39.65625 308.898438 41.589844 311.375 43.582031 313.804688 C 45.574219 316.234375 47.628906 318.609375 49.738281 320.9375 C 51.847656 323.265625 54.011719 325.542969 56.234375 327.765625 C 58.457031 329.988281 60.734375 332.152344 63.0625 334.261719 C 65.390625 336.371094 67.765625 338.425781 70.195312 340.417969 C 72.625 342.410156 75.101562 344.34375 77.625 346.214844 C 80.148438 348.085938 82.71875 349.894531 85.332031 351.640625 C 87.941406 353.386719 90.597656 355.070312 93.292969 356.683594 C 95.988281 358.300781 98.71875 359.847656 101.492188 361.328125 C 104.261719 362.808594 107.070312 364.222656 109.910156 365.566406 C 112.75 366.910156 115.621094 368.183594 118.523438 369.386719 C 121.429688 370.585938 124.359375 371.71875 127.316406 372.777344 C 130.277344 373.835938 133.257812 374.820312 136.265625 375.734375 C 139.273438 376.644531 142.300781 377.484375 145.347656 378.246094 C 148.394531 379.007812 151.460938 379.699219 154.542969 380.3125 C 157.625 380.921875 160.71875 381.460938 163.828125 381.921875 C 166.9375 382.382812 170.054688 382.765625 173.179688 383.074219 C 176.308594 383.382812 179.441406 383.613281 182.578125 383.769531 C 185.71875 383.921875 188.859375 384 192 384 C 195.140625 384 198.28125 383.921875 201.421875 383.769531 C 204.558594 383.613281 207.691406 383.382812 210.820312 383.074219 C 213.945312 382.765625 217.0625 382.382812 220.171875 381.921875 C 223.28125 381.460938 226.375 380.921875 229.457031 380.3125 C 232.539062 379.699219 235.605469 379.007812 238.652344 378.246094 C 241.699219 377.484375 244.726562 376.644531 247.734375 375.734375 C 250.742188 374.820312 253.722656 373.835938 256.683594 372.777344 C 259.640625 371.71875 262.570312 370.585938 265.476562 369.386719 C 268.378906 368.183594 271.25 366.910156 274.089844 365.566406 C 276.929688 364.222656 279.738281 362.808594 282.507812 361.328125 C 285.28125 359.847656 288.011719 358.300781 290.707031 356.683594 C 293.402344 355.070312 296.058594 353.386719 298.667969 351.640625 C 301.28125 349.894531 303.851562 348.085938 306.375 346.214844 C 308.898438 344.34375 311.375 342.410156 313.804688 340.417969 C 316.234375 338.425781 318.609375 336.371094 320.9375 334.261719 C 323.265625 332.152344 325.542969 329.988281 327.765625 327.765625 C 329.988281 325.542969 332.152344 323.265625 334.261719 320.9375 C 336.371094 318.609375 338.425781 316.234375 340.417969 313.804688 C 342.410156 311.375 344.34375 308.898438 346.214844 306.375 C 348.085938 303.851562 349.894531 301.28125 351.640625 298.667969 C 353.386719 296.058594 355.070312 293.402344 356.683594 290.707031 C 358.300781 288.011719 359.847656 285.28125 361.328125 282.507812 C 362.808594 279.738281 364.222656 276.929688 365.566406 274.089844 C 366.910156 271.25 368.183594 268.378906 369.386719 265.476562 C 370.585938 262.570312 371.71875 259.640625 372.777344 256.683594 C 373.835938 253.722656 374.820312 250.742188 375.734375 247.734375 C 376.644531 244.726562 377.484375 241.699219 378.246094 238.652344 C 379.007812 235.605469 379.699219 232.539062 380.3125 229.457031 C 380.921875 226.375 381.460938 223.28125 381.921875 220.171875 C 382.382812 217.0625 382.765625 213.945312 383.074219 210.820312 C 383.382812 207.691406 383.613281 204.558594 383.769531 201.421875 C 383.921875 198.28125 384 195.140625 384 192 C 383.996094 188.859375 383.914062 185.71875 383.757812 182.582031 C 383.601562 179.445312 383.367188 176.3125 383.054688 173.1875 C 382.746094 170.0625 382.359375 166.945312 381.894531 163.839844 C 381.429688 160.730469 380.890625 157.636719 380.273438 154.558594 C 379.660156 151.476562 378.96875 148.414062 378.203125 145.367188 C 377.4375 142.320312 376.597656 139.296875 375.683594 136.289062 C 374.769531 133.285156 373.78125 130.304688 372.722656 127.347656 C 371.664062 124.390625 370.53125 121.460938 369.328125 118.558594 C 368.121094 115.65625 366.847656 112.785156 365.503906 109.949219 C 364.160156 107.109375 362.746094 104.304688 361.265625 101.535156 C 359.78125 98.765625 358.234375 96.035156 356.617188 93.339844 C 355.003906 90.644531 353.320312 87.992188 351.574219 85.382812 C 349.828125 82.769531 348.019531 80.203125 346.148438 77.679688 C 344.277344 75.15625 342.34375 72.683594 340.351562 70.253906 C 338.359375 67.828125 336.308594 65.449219 334.195312 63.121094 C 332.085938 60.792969 329.921875 58.519531 327.699219 56.300781 C 325.480469 54.078125 323.207031 51.914062 320.878906 49.804688 C 318.550781 47.691406 316.171875 45.640625 313.746094 43.648438 C 311.316406 41.65625 308.84375 39.722656 306.320312 37.851562 C 303.796875 35.980469 301.230469 34.171875 298.617188 32.425781 C 296.007812 30.679688 293.355469 28.996094 290.660156 27.382812 C 287.964844 25.765625 285.234375 24.21875 282.464844 22.734375 C 279.695312 21.253906 276.890625 19.839844 274.050781 18.496094 C 271.214844 17.152344 268.34375 15.878906 265.441406 14.671875 C 262.539062 13.46875 259.609375 12.335938 256.652344 11.277344 C 253.695312 10.21875 250.714844 9.230469 247.710938 8.316406 C 244.707031 7.402344 241.679688 6.5625 238.632812 5.796875 C 235.585938 5.03125 232.523438 4.339844 229.441406 3.726562 C 226.363281 3.109375 223.269531 2.570312 220.160156 2.105469 C 217.054688 1.640625 213.9375 1.253906 210.8125 0.945312 C 207.6875 0.632812 204.554688 0.398438 201.417969 0.242188 C 198.28125 0.0859375 195.140625 0.00390625 192 0 Z M 278.644531 264.191406 C 278.097656 264.828125 277.496094 265.402344 276.835938 265.921875 C 276.179688 266.441406 275.476562 266.894531 274.734375 267.277344 C 273.988281 267.660156 273.214844 267.96875 272.410156 268.203125 C 271.605469 268.4375 270.785156 268.589844 269.949219 268.667969 C 269.117188 268.742188 268.28125 268.738281 267.449219 268.652344 C 266.617188 268.566406 265.796875 268.402344 264.996094 268.160156 C 264.195312 267.917969 263.425781 267.601562 262.683594 267.207031 C 261.941406 266.816406 261.246094 266.355469 260.59375 265.832031 L 183.796875 201.832031 C 183.074219 201.230469 182.429688 200.558594 181.859375 199.816406 C 181.285156 199.070312 180.800781 198.277344 180.40625 197.425781 C 180.007812 196.578125 179.707031 195.695312 179.503906 194.777344 C 179.300781 193.863281 179.199219 192.9375 179.199219 192 L 179.199219 102.398438 C 179.199219 101.558594 179.28125 100.726562 179.445312 99.902344 C 179.609375 99.078125 179.851562 98.277344 180.175781 97.5 C 180.496094 96.726562 180.890625 95.988281 181.355469 95.289062 C 181.824219 94.589844 182.355469 93.941406 182.949219 93.347656 C 183.542969 92.753906 184.191406 92.222656 184.890625 91.757812 C 185.585938 91.289062 186.324219 90.894531 187.101562 90.574219 C 187.878906 90.253906 188.679688 90.011719 189.503906 89.847656 C 190.328125 89.683594 191.160156 89.601562 192 89.601562 C 192.839844 89.601562 193.671875 89.683594 194.496094 89.847656 C 195.320312 90.011719 196.121094 90.253906 196.898438 90.574219 C 197.675781 90.894531 198.414062 91.289062 199.109375 91.757812 C 199.808594 92.222656 200.457031 92.753906 201.050781 93.347656 C 201.644531 93.941406 202.175781 94.589844 202.644531 95.289062 C 203.109375 95.988281 203.503906 96.726562 203.824219 97.5 C 204.148438 98.277344 204.390625 99.078125 204.554688 99.902344 C 204.71875 100.726562 204.800781 101.558594 204.800781 102.398438 L 204.800781 186.007812 L 277.003906 246.167969 C 277.648438 246.707031 278.238281 247.304688 278.765625 247.957031 C 279.292969 248.609375 279.75 249.308594 280.140625 250.054688 C 280.53125 250.796875 280.847656 251.570312 281.085938 252.378906 C 281.320312 253.183594 281.480469 254.003906 281.554688 254.839844 C 281.632812 255.679688 281.625 256.515625 281.535156 257.351562 C 281.449219 258.183594 281.277344 259.003906 281.027344 259.804688 C 280.777344 260.609375 280.453125 261.378906 280.050781 262.117188 C 279.652344 262.855469 279.179688 263.546875 278.644531 264.191406 Z M 278.644531 264.191406 "/></g></svg>