<svg xmlns="http://www.w3.org/2000/svg" xmlns:xlink="http://www.w3.org/1999/xlink" width="512" zoomAndPan="magnify" viewBox="0 0 384 383.999986" height="512" preserveAspectRatio="xMidYMid meet" version="1.2"><g id="f5a3dec64e"><path style=" stroke:none;fill-rule:nonzero;fill:#ffffff;fill-opacity:1;" d="M 383.945312 191.945312 C 383.945312 195.089844 383.867188 198.230469 383.710938 201.367188 C 383.558594 204.507812 383.328125 207.640625 383.019531 210.765625 C 382.710938 213.894531 382.328125 217.011719 381.867188 220.117188 C 381.40625 223.226562 380.867188 226.320312 380.253906 229.402344 C 379.640625 232.484375 378.953125 235.550781 378.191406 238.597656 C 377.425781 241.648438 376.589844 244.675781 375.675781 247.679688 C 374.765625 250.6875 373.777344 253.671875 372.71875 256.628906 C 371.660156 259.585938 370.53125 262.519531 369.328125 265.421875 C 368.125 268.324219 366.855469 271.195312 365.511719 274.035156 C 364.167969 276.875 362.753906 279.683594 361.273438 282.453125 C 359.792969 285.226562 358.242188 287.957031 356.628906 290.652344 C 355.011719 293.347656 353.332031 296.003906 351.585938 298.613281 C 349.839844 301.226562 348.03125 303.796875 346.160156 306.320312 C 344.289062 308.84375 342.355469 311.320312 340.363281 313.75 C 338.371094 316.175781 336.316406 318.554688 334.207031 320.882812 C 332.097656 323.210938 329.929688 325.488281 327.710938 327.710938 C 325.488281 329.929688 323.210938 332.097656 320.882812 334.207031 C 318.554688 336.316406 316.175781 338.371094 313.75 340.363281 C 311.320312 342.355469 308.84375 344.289062 306.320312 346.160156 C 303.796875 348.03125 301.226562 349.839844 298.613281 351.585938 C 296.003906 353.332031 293.347656 355.011719 290.652344 356.628906 C 287.957031 358.242188 285.226562 359.792969 282.453125 361.273438 C 279.683594 362.753906 276.875 364.167969 274.035156 365.511719 C 271.195312 366.855469 268.324219 368.125 265.421875 369.328125 C 262.519531 370.53125 259.585938 371.660156 256.628906 372.71875 C 253.671875 373.777344 250.6875 374.765625 247.679688 375.675781 C 244.675781 376.589844 241.648438 377.425781 238.597656 378.191406 C 235.550781 378.953125 232.484375 379.640625 229.402344 380.253906 C 226.320312 380.867188 223.226562 381.40625 220.117188 381.867188 C 217.011719 382.328125 213.894531 382.710938 210.765625 383.019531 C 207.640625 383.328125 204.507812 383.558594 201.367188 383.710938 C 198.230469 383.867188 195.089844 383.945312 191.945312 383.945312 C 188.804688 383.945312 185.664062 383.867188 182.527344 383.710938 C 179.386719 383.558594 176.253906 383.328125 173.128906 383.019531 C 170 382.710938 166.882812 382.328125 163.777344 381.867188 C 160.667969 381.40625 157.574219 380.867188 154.492188 380.253906 C 151.410156 379.640625 148.34375 378.953125 145.296875 378.191406 C 142.246094 377.425781 139.21875 376.589844 136.214844 375.675781 C 133.207031 374.765625 130.222656 373.777344 127.265625 372.71875 C 124.308594 371.660156 121.375 370.53125 118.472656 369.328125 C 115.570312 368.125 112.699219 366.855469 109.859375 365.511719 C 107.015625 364.167969 104.210938 362.753906 101.441406 361.273438 C 98.667969 359.792969 95.9375 358.242188 93.242188 356.628906 C 90.546875 355.011719 87.890625 353.332031 85.28125 351.585938 C 82.667969 349.839844 80.097656 348.03125 77.574219 346.160156 C 75.050781 344.289062 72.574219 342.355469 70.144531 340.363281 C 67.714844 338.371094 65.339844 336.316406 63.011719 334.207031 C 60.683594 332.097656 58.40625 329.929688 56.183594 327.710938 C 53.964844 325.488281 51.796875 323.210938 49.6875 320.882812 C 47.578125 318.554688 45.523438 316.175781 43.53125 313.75 C 41.539062 311.320312 39.605469 308.84375 37.734375 306.320312 C 35.863281 303.796875 34.054688 301.226562 32.308594 298.613281 C 30.5625 296.003906 28.882812 293.347656 27.265625 290.652344 C 25.652344 287.957031 24.101562 285.226562 22.621094 282.453125 C 21.140625 279.683594 19.726562 276.875 18.382812 274.035156 C 17.039062 271.195312 15.769531 268.324219 14.566406 265.421875 C 13.363281 262.519531 12.230469 259.585938 11.171875 256.628906 C 10.113281 253.671875 9.128906 250.6875 8.21875 247.679688 C 7.304688 244.675781 6.46875 241.648438 5.703125 238.597656 C 4.941406 235.550781 4.253906 232.484375 3.640625 229.402344 C 3.027344 226.320312 2.488281 223.226562 2.027344 220.117188 C 1.566406 217.011719 1.183594 213.894531 0.875 210.765625 C 0.566406 207.640625 0.335938 204.507812 0.183594 201.367188 C 0.0273438 198.230469 -0.0507812 195.089844 -0.0507812 191.945312 C -0.0507812 188.804688 0.0273438 185.664062 0.183594 182.527344 C 0.335938 179.386719 0.566406 176.253906 0.875 173.128906 C 1.183594 170 1.566406 166.882812 2.027344 163.777344 C 2.488281 160.667969 3.027344 157.574219 3.640625 154.492188 C 4.253906 151.410156 4.941406 148.34375 5.703125 145.296875 C 6.46875 142.246094 7.304688 139.21875 8.21875 136.214844 C 9.128906 133.207031 10.113281 130.222656 11.171875 127.265625 C 12.230469 124.308594 13.363281 121.375 14.566406 118.472656 C 15.769531 115.570312 17.039062 112.699219 18.382812 109.859375 C 19.726562 107.015625 21.140625 104.210938 22.621094 101.441406 C 24.101562 98.667969 25.652344 95.9375 27.265625 93.242188 C 28.882812 90.546875 30.5625 87.890625 32.308594 85.28125 C 34.054688 82.667969 35.863281 80.097656 37.734375 77.574219 C 39.605469 75.050781 41.539062 72.574219 43.53125 70.144531 C 45.523438 67.714844 47.578125 65.339844 49.6875 63.011719 C 51.796875 60.683594 53.964844 58.40625 56.183594 56.183594 C 58.40625 53.964844 60.683594 51.796875 63.011719 49.6875 C 65.339844 47.578125 67.714844 45.523438 70.144531 43.53125 C 72.574219 41.539062 75.050781 39.605469 77.574219 37.734375 C 80.097656 35.863281 82.667969 34.054688 85.28125 32.308594 C 87.890625 30.5625 90.546875 28.882812 93.242188 27.265625 C 95.9375 25.652344 98.667969 24.101562 101.441406 22.621094 C 104.210938 21.140625 107.015625 19.726562 109.859375 18.382812 C 112.699219 17.039062 115.570312 15.769531 118.472656 14.566406 C 121.375 13.363281 124.308594 12.230469 127.265625 11.171875 C 130.222656 10.113281 133.207031 9.128906 136.214844 8.21875 C 139.21875 7.304688 142.246094 6.46875 145.296875 5.703125 C 148.34375 4.941406 151.410156 4.253906 154.492188 3.640625 C 157.570312 3.027344 160.667969 2.488281 163.773438 2.027344 C 166.882812 1.566406 170 1.183594 173.128906 0.875 C 176.253906 0.566406 179.386719 0.335938 182.527344 0.183594 C 185.664062 0.0273438 188.804688 -0.0507812 191.945312 -0.0507812 C 195.089844 -0.0507812 198.230469 0.0273438 201.367188 0.183594 C 204.507812 0.335938 207.640625 0.566406 210.765625 0.875 C 213.894531 1.183594 217.011719 1.566406 220.117188 2.027344 C 223.226562 2.488281 226.320312 3.027344 229.402344 3.640625 C 232.484375 4.253906 235.550781 4.941406 238.597656 5.703125 C 241.648438 6.46875 244.675781 7.304688 247.679688 8.21875 C 250.6875 9.128906 253.671875 10.113281 256.628906 11.171875 C 259.585938 12.230469 262.519531 13.363281 265.421875 14.566406 C 268.324219 15.769531 271.195312 17.039062 274.035156 18.382812 C 276.875 19.726562 279.683594 21.140625 282.453125 22.621094 C 285.226562 24.101562 287.957031 25.652344 290.652344 27.265625 C 293.347656 28.882812 296.003906 30.5625 298.613281 32.308594 C 301.226562 34.054688 303.796875 35.863281 306.320312 37.734375 C 308.84375 39.605469 311.320312 41.539062 313.75 43.53125 C 316.175781 45.523438 318.554688 47.578125 320.882812 49.6875 C 323.210938 51.796875 325.488281 53.964844 327.710938 56.183594 C 329.929688 58.40625 332.097656 60.683594 334.207031 63.011719 C 336.316406 65.339844 338.371094 67.714844 340.363281 70.144531 C 342.355469 72.574219 344.289062 75.050781 346.160156 77.574219 C 348.03125 80.097656 349.839844 82.667969 351.585938 85.28125 C 353.332031 87.890625 355.011719 90.546875 356.628906 93.242188 C 358.242188 95.9375 359.792969 98.667969 361.273438 101.441406 C 362.753906 104.210938 364.167969 107.015625 365.511719 109.859375 C 366.855469 112.699219 368.125 115.570312 369.328125 118.472656 C 370.53125 121.375 371.660156 124.308594 372.71875 127.265625 C 373.777344 130.222656 374.765625 133.207031 375.675781 136.214844 C 376.589844 139.21875 377.425781 142.246094 378.191406 145.296875 C 378.953125 148.34375 379.640625 151.410156 380.253906 154.492188 C 380.867188 157.570312 381.40625 160.667969 381.867188 163.773438 C 382.328125 166.882812 382.710938 170 383.019531 173.128906 C 383.328125 176.253906 383.558594 179.386719 383.710938 182.527344 C 383.867188 185.664062 383.945312 188.804688 383.945312 191.945312 Z M 383.945312 191.945312 "/><path style=" stroke:none;fill-rule:nonzero;fill:#000000;fill-opacity:1;" d="M 231.140625 218.542969 L 226.605469 223.152344 C 218.847656 231.03125 206.171875 231.132812 198.289062 223.375 L 160.246094 185.929688 C 152.363281 178.171875 152.261719 165.496094 160.019531 157.617188 L 164.558594 153.007812 C 169.710938 147.769531 169.644531 139.347656 164.40625 134.195312 L 132.75 103.035156 C 128.503906 98.859375 121.675781 98.910156 117.496094 103.160156 C 94.140625 126.890625 92.820312 164.542969 114.457031 189.851562 L 129.234375 207.136719 C 143.953125 224.355469 160.128906 240.277344 177.578125 254.71875 L 195.09375 269.222656 C 220.746094 290.453125 258.375 288.535156 281.730469 264.804688 C 285.910156 260.558594 285.855469 253.726562 281.609375 249.550781 L 249.953125 218.390625 C 244.71875 213.238281 236.292969 213.304688 231.140625 218.542969 Z M 231.140625 218.542969 "/></g></svg>