<svg xmlns="http://www.w3.org/2000/svg" xmlns:xlink="http://www.w3.org/1999/xlink" width="512" zoomAndPan="magnify" viewBox="0 0 384 383.999986" height="512" preserveAspectRatio="xMidYMid meet" version="1.2"><defs><clipPath id="8369059a67"><path d="M 1 52.558594 L 383 52.558594 L 383 207 L 1 207 Z M 1 52.558594 "/></clipPath><clipPath id="4603ed466c"><path d="M 0 129 L 384 129 L 384 331.558594 L 0 331.558594 Z M 0 129 "/></clipPath></defs><g id="f1c966ac32"><g clip-rule="nonzero" clip-path="url(#8369059a67)"><path style=" stroke:none;fill-rule:nonzero;fill:#ffffff;fill-opacity:1;" d="M 192 206.390625 L 382.78125 88.988281 C 382.519531 87.714844 382.203125 86.453125 381.832031 85.207031 C 381.460938 83.960938 381.035156 82.730469 380.558594 81.523438 C 380.082031 80.3125 379.558594 79.125 378.980469 77.957031 C 378.402344 76.792969 377.777344 75.652344 377.101562 74.542969 C 376.425781 73.429688 375.707031 72.347656 374.9375 71.300781 C 374.171875 70.25 373.359375 69.234375 372.507812 68.25 C 371.652344 67.269531 370.757812 66.328125 369.824219 65.421875 C 368.890625 64.519531 367.917969 63.65625 366.910156 62.832031 C 365.902344 62.011719 364.859375 61.234375 363.785156 60.5 C 362.710938 59.769531 361.609375 59.082031 360.476562 58.445312 C 359.34375 57.804688 358.183594 57.214844 357 56.675781 C 355.816406 56.136719 354.613281 55.648438 353.386719 55.210938 C 352.164062 54.777344 350.921875 54.390625 349.664062 54.0625 C 348.40625 53.730469 347.136719 53.453125 345.855469 53.230469 C 344.574219 53.007812 343.285156 52.84375 341.988281 52.730469 C 340.691406 52.617188 339.394531 52.5625 338.09375 52.558594 L 45.90625 52.558594 C 44.605469 52.5625 43.308594 52.617188 42.011719 52.730469 C 40.714844 52.84375 39.425781 53.007812 38.144531 53.230469 C 36.863281 53.453125 35.59375 53.730469 34.335938 54.0625 C 33.078125 54.390625 31.835938 54.777344 30.613281 55.210938 C 29.386719 55.648438 28.183594 56.136719 27 56.675781 C 25.816406 57.214844 24.65625 57.804688 23.523438 58.445312 C 22.390625 59.082031 21.289062 59.769531 20.214844 60.5 C 19.140625 61.234375 18.097656 62.011719 17.089844 62.832031 C 16.082031 63.65625 15.109375 64.519531 14.175781 65.421875 C 13.242188 66.328125 12.347656 67.269531 11.492188 68.25 C 10.640625 69.234375 9.828125 70.25 9.0625 71.300781 C 8.292969 72.347656 7.574219 73.429688 6.898438 74.542969 C 6.222656 75.652344 5.597656 76.792969 5.019531 77.957031 C 4.441406 79.125 3.917969 80.3125 3.441406 81.523438 C 2.964844 82.730469 2.539062 83.960938 2.167969 85.207031 C 1.796875 86.453125 1.480469 87.714844 1.21875 88.988281 Z M 192 206.390625 "/></g><g clip-rule="nonzero" clip-path="url(#4603ed466c)"><path style=" stroke:none;fill-rule:nonzero;fill:#ffffff;fill-opacity:1;" d="M 201.132812 241.703125 C 199.757812 242.550781 198.296875 243.191406 196.746094 243.628906 C 195.195312 244.070312 193.613281 244.289062 192 244.289062 C 190.386719 244.289062 188.804688 244.070312 187.253906 243.628906 C 185.703125 243.191406 184.242188 242.550781 182.867188 241.703125 L 0.277344 129.25 L 0.277344 285.714844 C 0.273438 287.210938 0.347656 288.703125 0.492188 290.191406 C 0.636719 291.679688 0.855469 293.15625 1.144531 294.625 C 1.433594 296.09375 1.796875 297.542969 2.226562 298.976562 C 2.660156 300.40625 3.164062 301.8125 3.734375 303.195312 C 4.304688 304.578125 4.941406 305.929688 5.644531 307.25 C 6.351562 308.570312 7.117188 309.851562 7.945312 311.097656 C 8.777344 312.34375 9.664062 313.542969 10.613281 314.699219 C 11.5625 315.859375 12.5625 316.964844 13.621094 318.023438 C 14.675781 319.085938 15.785156 320.089844 16.9375 321.039062 C 18.09375 321.988281 19.292969 322.878906 20.535156 323.710938 C 21.78125 324.542969 23.0625 325.3125 24.378906 326.019531 C 25.699219 326.726562 27.046875 327.367188 28.429688 327.941406 C 29.8125 328.515625 31.21875 329.019531 32.648438 329.453125 C 34.078125 329.890625 35.527344 330.253906 36.996094 330.546875 C 38.464844 330.839844 39.941406 331.058594 41.429688 331.207031 C 42.917969 331.355469 44.410156 331.429688 45.90625 331.429688 L 338.09375 331.429688 C 339.585938 331.429688 341.078125 331.355469 342.566406 331.207031 C 344.050781 331.0625 345.527344 330.839844 346.992188 330.546875 C 348.457031 330.257812 349.90625 329.894531 351.335938 329.457031 C 352.765625 329.023438 354.167969 328.519531 355.550781 327.949219 C 356.929688 327.375 358.277344 326.738281 359.597656 326.03125 C 360.914062 325.328125 362.195312 324.5625 363.4375 323.730469 C 364.679688 322.898438 365.875 322.011719 367.03125 321.0625 C 368.1875 320.113281 369.292969 319.113281 370.347656 318.054688 C 371.40625 317 372.40625 315.894531 373.355469 314.738281 C 374.304688 313.585938 375.191406 312.386719 376.023438 311.144531 C 376.851562 309.902344 377.621094 308.621094 378.324219 307.304688 C 379.03125 305.988281 379.667969 304.636719 380.242188 303.257812 C 380.8125 301.878906 381.316406 300.472656 381.75 299.042969 C 382.1875 297.613281 382.550781 296.164062 382.839844 294.699219 C 383.132812 293.234375 383.355469 291.757812 383.5 290.273438 C 383.648438 288.785156 383.722656 287.296875 383.722656 285.800781 L 383.722656 129.25 Z M 201.132812 241.703125 "/></g></g></svg>